<svg version="1.1" xmlns="http://www.w3.org/2000/svg" style="display: block;" viewBox="0 0 2048 2048" width="1024" height="1024" preserveAspectRatio="none">
<defs>
	<linearGradient id="Gradient1" gradientUnits="userSpaceOnUse" x1="1025.56" y1="1577.01" x2="1021.99" y2="669.669">
		<stop class="stop0" offset="0" stop-opacity="1" stop-color="rgb(200,151,54)"/>
		<stop class="stop1" offset="1" stop-opacity="1" stop-color="rgb(236,195,102)"/>
	</linearGradient>
	<linearGradient id="Gradient2" gradientUnits="userSpaceOnUse" x1="1013.5" y1="1508.85" x2="1030.95" y2="530.826">
		<stop class="stop0" offset="0" stop-opacity="1" stop-color="rgb(202,153,59)"/>
		<stop class="stop1" offset="1" stop-opacity="1" stop-color="rgb(240,202,107)"/>
	</linearGradient>
</defs>
<path transform="translate(0,0)" fill="rgb(19,37,60)" d="M 0 0 L 409.969 0 L 1635.58 0 L 2048 0 L 2048 412.324 L 2048 1635.98 L 2048 2048 L 1643.85 2048 L 415.104 2048 L 0 2048 L 0 1634.42 L 0 409.595 L 0 0 z"/>
<path transform="translate(0,0)" fill="rgb(255,254,254)" d="M 2048 1635.98 L 2048 2048 L 1643.85 2048 C 1659.25 2044.99 1675.3 2043.69 1690.91 2041.07 C 1719.37 2036.04 1747.31 2028.37 1774.35 2018.16 C 1904.13 1969.22 1996.49 1863.76 2031.84 1730.14 C 2036.13 1713.7 2039.56 1697.05 2042.1 1680.25 C 2043.65 1670.24 2044.24 1642.92 2048 1635.98 z"/>
<path transform="translate(0,0)" fill="rgb(255,254,254)" d="M 1635.58 0 L 2048 0 L 2048 412.324 C 2044.24 395.609 2042.8 373.395 2039.94 355.828 C 2032.68 311.574 2018.62 268.711 1998.25 228.76 C 1933.3 102.198 1814.17 25.1651 1675.99 4.57834 C 1665.57 3.0267 1644.29 3.22133 1635.58 0 z"/>
<path transform="translate(0,0)" fill="rgb(255,254,254)" d="M 0 1634.42 C 2.84449 1645.16 3.64283 1659.62 4.91439 1670.88 C 6.60668 1687.07 9.31565 1703.13 13.0252 1718.98 C 39.0965 1829.01 104.168 1923.53 201.006 1982.82 C 249.434 2012.31 303.143 2032.09 359.133 2041.06 C 371.991 2043.13 405.83 2045.54 415.104 2048 L 0 2048 L 0 1634.42 z"/>
<path transform="translate(0,0)" fill="rgb(255,254,254)" d="M 0 0 L 409.969 0 C 405.723 2.85428 375.142 4.49632 367.786 5.53745 C 201.841 29.0236 65.6833 144.248 19.1327 305.032 C 13.4657 324.379 9.03456 344.066 5.86601 363.975 C 4.31627 374.3 3.03105 402.068 0 409.595 L 0 0 z"/>
<path transform="translate(0,0)" fill="url(#Gradient2)" d="M 1354.16 598.712 C 1367.83 595.473 1389.62 587.728 1403.61 583.147 L 1488.3 555.236 C 1506.16 549.226 1524.65 541.728 1543.12 538.831 C 1550 537.752 1557.67 546.784 1557.93 552.571 C 1558.57 566.337 1558.3 581.138 1558.3 594.916 L 1558.25 688.865 L 1558.22 1012.75 L 1558.11 1348.33 C 1537.17 1353.82 1514 1361.46 1493.25 1367.91 L 1393.94 1398.53 L 1023.39 1511.68 L 489.787 1348.7 L 489.485 827.348 L 489.248 648.211 C 489.265 618.282 488.24 579.104 490.057 549.662 C 494.116 543.986 494.38 543.547 499.94 539.03 C 506.801 538.363 511.112 539.294 517.689 541.374 C 545.342 550.117 572.994 559.441 600.545 568.491 L 749.706 617.053 L 915.895 670.888 C 951.264 682.203 988.873 693.416 1023.7 705.639 C 1068.02 692.166 1112.3 675.892 1156.15 662.738 L 1156.45 844.203 C 1156.5 871.307 1155.77 901.077 1156.49 927.906 C 1161.27 934.847 1168.91 942.21 1178.58 936.987 C 1186.51 932.702 1195.87 923.225 1203.14 917.239 C 1220.64 902.818 1237.57 887.682 1255.43 873.637 C 1279.66 892.943 1302.42 914.581 1327.13 933.411 C 1338.56 942.122 1353.45 937.907 1354.51 922.675 C 1355.33 910.892 1354.73 898.073 1354.66 886.184 L 1354.33 816.585 L 1354.16 598.712 z"/>
<path transform="translate(0,0)" fill="url(#Gradient1)" d="M 420 671.391 C 429.435 670.542 445.758 670.818 455.693 670.72 C 454.033 701.277 455.409 744.584 455.458 775.976 L 455.43 973.844 L 455.419 1227 L 455.286 1317.13 C 455.285 1331.97 451.865 1358.48 460.304 1370.91 C 463.77 1376.01 469.898 1378.07 475.637 1379.89 C 494.033 1385.74 512.633 1391.08 531.118 1396.7 L 630.047 1426.97 L 868.776 1500.23 L 965.431 1529.57 C 981.415 1534.46 997.41 1539.4 1013.43 1544.17 C 1020.57 1546.29 1023.88 1547.22 1031.3 1545.03 C 1065.1 1535.05 1098.75 1524.45 1132.46 1514.14 L 1455.05 1415.51 C 1482.17 1407.09 1509.33 1398.83 1536.55 1390.74 C 1551.49 1386.28 1573.73 1381.97 1585.73 1372.82 C 1590.96 1368.83 1591.98 1359.85 1592.15 1353.42 C 1592.8 1328.72 1592.52 1303.89 1592.51 1279.15 L 1592.52 1136.74 L 1592.16 670.954 C 1625.74 671.501 1660.75 662.97 1658.34 709.068 C 1658.1 713.649 1658.27 719.08 1658.21 723.761 L 1658.13 1178.24 L 1658.18 1324.98 C 1658.22 1351.31 1658.34 1377.84 1658.12 1404.17 C 1658.09 1408.94 1656.89 1420.79 1654.6 1424.51 C 1650.95 1430.23 1643.93 1435.86 1637.24 1437.54 C 1614.18 1443.33 1590.66 1448.61 1567.53 1454.09 L 1408.72 1491.45 L 1169.78 1547.39 C 1125.02 1557.84 1080 1568.14 1035.13 1578.13 C 1028.35 1579.64 1020.97 1579.93 1014.18 1578.45 C 971.924 1569.26 929.443 1559.47 887.334 1549.74 C 811.671 1532.51 736.096 1514.9 660.61 1496.92 L 487.842 1456.19 C 462.744 1450.23 437.65 1444.36 412.515 1438.46 C 401.98 1435.99 391.532 1426.67 390.307 1415.51 C 389.08 1404.33 389.593 1392 389.617 1380.65 L 389.767 1323.39 L 389.868 1137.03 L 389.611 844.836 L 389.518 748.895 C 389.508 732.101 389.396 715.116 389.671 698.339 C 389.766 692.528 392.417 686.426 396.244 682.064 C 403.415 673.892 410.075 672.339 420 671.391 z"/>
<path transform="translate(0,0)" fill="rgb(236,195,100)" d="M 1190.01 467.314 C 1232.04 468.658 1277.44 467.095 1320.05 467.632 L 1320.13 884.578 L 1295.07 863.258 C 1287.74 856.997 1267.88 837.153 1258.71 835.309 C 1248.88 833.331 1233.66 847.83 1225.81 854.283 C 1214.53 863.557 1202.31 873.857 1191 883.781 L 1190.01 467.314 z"/>
</svg>